<?xml version="1.0" encoding="utf-8"?><svg viewBox="0 0 74 65" xmlns="http://www.w3.org/2000/svg" xmlns:xlink="http://www.w3.org/1999/xlink"><style>:root>svg{display:none}:root>svg:target{display:block}</style><svg viewBox="0 0 24 17" id="arrow-down" xmlns="http://www.w3.org/2000/svg"><path d="M23.084 1L12.042 16M1 1l11.042 15"/></svg><svg viewBox="0 0 39 18" id="arrow-right" xmlns="http://www.w3.org/2000/svg"><path d="M38.35 8.857L26.73 1M38.35 8.855l-11.62 7.857M37.935 8.855H1"/></svg><svg viewBox="0 0 63 28" id="arrow-right-long" xmlns="http://www.w3.org/2000/svg"><path d="M62.22 14L43.174 1M62.22 14L43.174 27M61.54 14H1"/></svg><svg fill="none" viewBox="0 0 52 52" id="scroll-up" xmlns="http://www.w3.org/2000/svg"><path d="M26 51c13.807 0 25-11.193 25-25S39.807 1 26 1 1 12.193 1 26s11.193 25 25 25zM26 11.531L15.965 26.263M26 11.531l10.035 14.732M26 12.055v28.413"/></svg><svg viewBox="0 0 58 65" id="statistics-icon-1" xmlns="http://www.w3.org/2000/svg"><path d="M22.508 4.938c5.21 2.16 8.87 7.286 8.87 13.268M2.648 18.206a14.34 14.34 0 018.87-13.268M22.506 1.899v16.307H11.518V1.899A16.966 16.966 0 0117.007 1c1.926 0 3.766.31 5.5.899zM33.026 18.207v2.846h-3.242v2.343h-5.543v3.799H1.011v-8.988h32.015zM4.83 27.195v19.538l8.582 6.87h3.605M24.24 50.703l-3.627 2.9h-3.595M4.83 30.96H1v6.003l3.798 3.798"/><path d="M47.545 21.052H29.783v4.686h17.762v-4.686z"/><path d="M53.098 23.395v37.471H24.24V23.395h5.543v2.343h17.773v-2.343h5.542z"/><path d="M53.099 26.809h3.413V64.28H27.654v-3.413M38.676 34.21l-8.207 5.704"/><path d="M38.676 34.21l8.196 5.704v10.144"/><path d="M36.44 36.051l5.553 3.863v10.144H30.469v-5.233"/></svg><svg viewBox="0 0 74 50" id="statistics-icon-2" xmlns="http://www.w3.org/2000/svg"><path d="M12.26 8.57v25.344H5.9L1 28.978V13.507L5.9 8.57h6.36z"/><path d="M9.302 11.547V30.93H7.123M65.35 1v40.478H9.303v-7.563h2.958V8.572H9.303V1H65.35z"/><path d="M69.077 4.77v40.457H13.029v-3.751h52.32V4.77h3.728z"/><path d="M72.806 8.532V49H16.748v-3.772h52.33V8.532h3.728z"/><path d="M57.64 17.648H17.022v3.762H57.64v-3.762zM17.023 28.394h7.465v3.771h-7.465M35.462 28.394h-7.247v3.761h7.247v-3.761zM46.437 28.394H39.19v3.761h7.247v-3.761zM57.629 32.165h-7.465v-3.771h7.465M35.463 36.334V21.42h3.727v14.915"/><path d="M24.488 36.334V21.42h3.728v14.915M46.438 36.334V21.42h3.727v14.915M17.023 21.409V6.145M57.629 21.408V6.145M21.087 9.914l-3.944 3.98M27.318 9.914l-7.672 7.731M33.54 9.914l-7.661 7.731M39.771 9.914L32.1 17.645M45.994 9.914l-7.672 7.731M52.226 9.914l-7.454 7.513M57.63 10.73l-6.853 6.916"/></svg><svg viewBox="0 0 58 60" id="statistics-icon-3" xmlns="http://www.w3.org/2000/svg"><path d="M16.89 1l15.28 13.32 17.4 15.17 7.14 6.22V1.01H16.89V1zm34.57 23.16l-1.89-1.65-9.4-8.19-9.26-8.07h20.55v17.91z"/><path d="M51.46 6.25v17.91l-1.89-1.65-9.4-8.19-9.26-8.07h20.55z"/><path d="M51.46 6.25v17.91l-1.89-1.65-9.4-8.19-9.26-8.07h20.55zM23.42 1v1.79M30.08 1v1.79M36.74 1v1.79M43.4 1v1.79M50.06 1v1.79M9.88 5.71v33.56H5.99C3.23 39.27 1 41.5 1 44.25V10.69c0-2.75 2.23-4.98 4.99-4.98h3.89z"/><path d="M49.57 19.3v3.21l-9.4-8.19h4.42c2.76 0 4.98 2.23 4.98 4.98zM32.17 14.32l17.4 15.17V54.2a4.98 4.98 0 00-4.98-4.98H5.99C3.23 49.22 1 46.99 1 44.24c0-2.67 2.1-4.85 4.75-4.97.08-.01.16-.01.24-.01h3.89V14.32h22.29z"/><path d="M49.57 54.199a4.98 4.98 0 01-4.98 4.98H40.7v-9.96h3.89c2.76 0 4.98 2.23 4.98 4.98zM9.88 22.86H38.2V44.8h-9.26M28.94 44.802c0-3.61-2.92-6.54-6.54-6.54M22.41 44.802H5.76v-5.54M22.41 44.802v-1.63M16.42 44.8V28.93M38.2 33.371H16.42M28.94 22.86v10.51"/></svg></svg>