<svg width="114" height="74" viewBox="0 0 114 74" fill="none" xmlns="http://www.w3.org/2000/svg">
<path d="M59.5123 73.5L59.5004 62.7804L85.5 55.2316V73.5H59.5123ZM59.5104 57.0115V53.4143L85.5 39.8256V46.4466L59.5104 57.0115Z" stroke="#FE0000" stroke-opacity="0.54"/>
<path d="M113.488 73.5H87.5V55.2316L113.5 62.7804L113.488 73.5ZM113.49 57.0115L87.5 46.4466V39.8256L113.49 53.4143V57.0115Z" stroke="#FE0000" stroke-opacity="0.54"/>
<path d="M59.5123 34.5L59.5004 23.7804L85.5 16.2316V34.5H59.5123ZM59.5104 18.0115V14.4143L85.5 0.825643V7.44656L59.5104 18.0115Z" stroke="white" stroke-opacity="0.3"/>
<path d="M113.488 34.5H87.5V16.2316L113.5 23.7804L113.488 34.5ZM113.49 18.0115L87.5 7.44656V0.825643L113.49 14.4143V18.0115Z" stroke="white" stroke-opacity="0.3"/>
<path d="M0.512307 73.5L0.500417 62.7804L26.5 55.2316V73.5H0.512307ZM0.510354 57.0115V53.4143L26.5 39.8256V46.4466L0.510354 57.0115Z" stroke="white" stroke-opacity="0.3"/>
<path d="M54.4877 73.5H28.5V55.2316L54.4996 62.7804L54.4877 73.5ZM54.4896 57.0115L28.5 46.4466V39.8256L54.4896 53.4143V57.0115Z" stroke="white" stroke-opacity="0.3"/>
</svg>
