<svg width="291" height="191" viewBox="0 0 291 191" fill="none" xmlns="http://www.w3.org/2000/svg">
<path d="M236.512 190.5L236.5 179.78L262.5 172.232V190.5H236.512ZM236.51 174.011V170.414L262.5 156.826V163.447L236.51 174.011Z" stroke="white" stroke-opacity="0.3"/>
<path d="M264.5 190.5V172.232L290.5 179.78L290.488 190.5H264.5ZM290.49 174.011L264.5 163.447V156.826L290.49 170.414V174.011Z" stroke="white" stroke-opacity="0.3"/>
<path d="M236.512 151.5L236.5 140.78L262.5 133.232V151.5H236.512ZM236.51 135.011V131.414L262.5 117.826V124.447L236.51 135.011Z" stroke="#FE0000" stroke-opacity="0.54"/>
<path d="M264.5 151.5V133.232L290.5 140.78L290.488 151.5H264.5ZM290.49 135.011L264.5 124.447V117.826L290.49 131.414V135.011Z" stroke="#FE0000" stroke-opacity="0.54"/>
<path d="M236.512 112.5L236.5 101.78L262.5 94.2316V112.5H236.512ZM236.51 96.0115V92.4143L262.5 78.8256V85.4466L236.51 96.0115Z" stroke="white" stroke-opacity="0.3"/>
<path d="M264.5 112.5V94.2316L290.5 101.78L290.488 112.5H264.5ZM290.49 96.0115L264.5 85.4466V78.8256L290.49 92.4143V96.0115Z" stroke="white" stroke-opacity="0.3"/>
<path d="M236.512 73.5L236.5 62.7804L262.5 55.2316V73.5H236.512ZM236.51 57.0115V53.4143L262.5 39.8256V46.4466L236.51 57.0115Z" stroke="white" stroke-opacity="0.3"/>
<path d="M264.5 73.5V55.2316L290.5 62.7804L290.488 73.5H264.5ZM290.49 57.0115L264.5 46.4466V39.8256L290.49 53.4143V57.0115Z" stroke="white" stroke-opacity="0.3"/>
<path d="M177.512 190.5L177.5 179.78L203.5 172.232V190.5H177.512ZM177.51 174.011V170.414L203.5 156.826V163.447L177.51 174.011Z" stroke="white" stroke-opacity="0.3"/>
<path d="M205.5 190.5V172.232L231.5 179.78L231.488 190.5H205.5ZM231.49 174.011L205.5 163.447V156.826L231.49 170.414V174.011Z" stroke="white" stroke-opacity="0.3"/>
<path d="M177.512 151.5L177.5 140.78L203.5 133.232V151.5H177.512ZM177.51 135.011V131.414L203.5 117.826V124.447L177.51 135.011Z" stroke="white" stroke-opacity="0.3"/>
<path d="M205.5 151.5V133.232L231.5 140.78L231.488 151.5H205.5ZM231.49 135.011L205.5 124.447V117.826L231.49 131.414V135.011Z" stroke="white" stroke-opacity="0.3"/>
<path d="M118.512 190.5L118.5 179.78L144.5 172.232V190.5H118.512ZM118.51 174.011V170.414L144.5 156.826V163.447L118.51 174.011Z" stroke="white" stroke-opacity="0.3"/>
<path d="M146.5 190.5V172.232L172.5 179.78L172.488 190.5H146.5ZM172.49 174.011L146.5 163.447V156.826L172.49 170.414V174.011Z" stroke="white" stroke-opacity="0.3"/>
<path d="M118.512 151.5L118.5 140.78L144.5 133.232V151.5H118.512ZM118.51 135.011V131.414L144.5 117.826V124.447L118.51 135.011Z" stroke="#FE0000" stroke-opacity="0.54"/>
<path d="M146.5 151.5V133.232L172.5 140.78L172.488 151.5H146.5ZM172.49 135.011L146.5 124.447V117.826L172.49 131.414V135.011Z" stroke="#FE0000" stroke-opacity="0.54"/>
<path d="M177.512 112.5L177.5 101.78L203.5 94.2316V112.5H177.512ZM177.51 96.0115V92.4143L203.5 78.8256V85.4466L177.51 96.0115Z" stroke="white" stroke-opacity="0.3"/>
<path d="M205.5 112.5V94.2316L231.5 101.78L231.488 112.5H205.5ZM231.49 96.0115L205.5 85.4466V78.8256L231.49 92.4143V96.0115Z" stroke="white" stroke-opacity="0.3"/>
<path d="M177.512 73.5L177.5 62.7804L203.5 55.2316V73.5H177.512ZM177.51 57.0115V53.4143L203.5 39.8256V46.4466L177.51 57.0115Z" stroke="white" stroke-opacity="0.3"/>
<path d="M205.5 73.5V55.2316L231.5 62.7804L231.488 73.5H205.5ZM231.49 57.0115L205.5 46.4466V39.8256L231.49 53.4143V57.0115Z" stroke="white" stroke-opacity="0.3"/>
<path d="M236.512 34.5L236.5 23.7804L262.5 16.2316V34.5H236.512ZM236.51 18.0115V14.4143L262.5 0.825643V7.44656L236.51 18.0115Z" stroke="#FE0000" stroke-opacity="0.54"/>
<path d="M264.5 34.5V16.2316L290.5 23.7804L290.488 34.5H264.5ZM290.49 18.0115L264.5 7.44656V0.825643L290.49 14.4143V18.0115Z" stroke="#FE0000" stroke-opacity="0.54"/>
<path d="M118.512 112.5L118.5 101.78L144.5 94.2316V112.5H118.512ZM118.51 96.0115V92.4143L144.5 78.8256V85.4466L118.51 96.0115Z" stroke="white" stroke-opacity="0.3"/>
<path d="M146.5 112.5V94.2316L172.5 101.78L172.488 112.5H146.5ZM172.49 96.0115L146.5 85.4466V78.8256L172.49 92.4143V96.0115Z" stroke="white" stroke-opacity="0.3"/>
<path d="M59.5123 190.5L59.5004 179.78L85.5 172.232V190.5H59.5123ZM59.5104 174.011V170.414L85.5 156.826V163.447L59.5104 174.011Z" stroke="white" stroke-opacity="0.3"/>
<path d="M87.5 190.5V172.232L113.5 179.78L113.488 190.5H87.5ZM113.49 174.011L87.5 163.447V156.826L113.49 170.414V174.011Z" stroke="white" stroke-opacity="0.3"/>
<path d="M59.5123 151.5L59.5004 140.78L85.5 133.232V151.5H59.5123ZM59.5104 135.011V131.414L85.5 117.826V124.447L59.5104 135.011Z" stroke="white" stroke-opacity="0.3"/>
<path d="M87.5 151.5V133.232L113.5 140.78L113.488 151.5H87.5ZM113.49 135.011L87.5 124.447V117.826L113.49 131.414V135.011Z" stroke="white" stroke-opacity="0.3"/>
<path d="M0.512307 190.5L0.500417 179.78L26.5 172.232V190.5H0.512307ZM0.510354 174.011V170.414L26.5 156.826V163.447L0.510354 174.011Z" stroke="white" stroke-opacity="0.3"/>
<path d="M28.5 190.5V172.232L54.4996 179.78L54.4877 190.5H28.5ZM54.4896 174.011L28.5 163.447V156.826L54.4896 170.414V174.011Z" stroke="white" stroke-opacity="0.3"/>
</svg>
