<svg width="409" height="269" viewBox="0 0 409 269" fill="none" xmlns="http://www.w3.org/2000/svg">
<path d="M354.512 268.5L354.5 257.78L380.5 250.232V268.5H354.512ZM354.51 252.011V248.414L380.5 234.826V241.447L354.51 252.011Z" stroke="white" stroke-opacity="0.3"/>
<path d="M382.5 268.5V250.232L408.5 257.78L408.488 268.5H382.5ZM408.49 252.011L382.5 241.447V234.826L408.49 248.414V252.011Z" stroke="white" stroke-opacity="0.3"/>
<path d="M354.512 229.5L354.5 218.78L380.5 211.232V229.5H354.512ZM354.51 213.011V209.414L380.5 195.826V202.447L354.51 213.011Z" stroke="white" stroke-opacity="0.3"/>
<path d="M382.5 229.5V211.232L408.5 218.78L408.488 229.5H382.5ZM408.49 213.011L382.5 202.447V195.826L408.49 209.414V213.011Z" stroke="white" stroke-opacity="0.3"/>
<path d="M295.512 268.5L295.5 257.78L321.5 250.232V268.5H295.512ZM295.51 252.011V248.414L321.5 234.826V241.447L295.51 252.011Z" stroke="white" stroke-opacity="0.3"/>
<path d="M323.5 268.5V250.232L349.5 257.78L349.488 268.5H323.5ZM349.49 252.011L323.5 241.447V234.826L349.49 248.414V252.011Z" stroke="white" stroke-opacity="0.3"/>
<path d="M295.512 229.5L295.5 218.78L321.5 211.232V229.5H295.512ZM295.51 213.011V209.414L321.5 195.826V202.447L295.51 213.011Z" stroke="white" stroke-opacity="0.3"/>
<path d="M323.5 229.5V211.232L349.5 218.78L349.488 229.5H323.5ZM349.49 213.011L323.5 202.447V195.826L349.49 209.414V213.011Z" stroke="white" stroke-opacity="0.3"/>
<path d="M354.512 190.5L354.5 179.78L380.5 172.232V190.5H354.512ZM354.51 174.011V170.414L380.5 156.826V163.447L354.51 174.011Z" stroke="white" stroke-opacity="0.3"/>
<path d="M382.5 190.5V172.232L408.5 179.78L408.488 190.5H382.5ZM408.49 174.011L382.5 163.447V156.826L408.49 170.414V174.011Z" stroke="white" stroke-opacity="0.3"/>
<path d="M354.512 151.5L354.5 140.78L380.5 133.232V151.5H354.512ZM354.51 135.011V131.414L380.5 117.826V124.447L354.51 135.011Z" stroke="white" stroke-opacity="0.3"/>
<path d="M382.5 151.5V133.232L408.5 140.78L408.488 151.5H382.5ZM408.49 135.011L382.5 124.447V117.826L408.49 131.414V135.011Z" stroke="white" stroke-opacity="0.3"/>
<path d="M295.512 190.5L295.5 179.78L321.5 172.232V190.5H295.512ZM295.51 174.011V170.414L321.5 156.826V163.447L295.51 174.011Z" stroke="#FE0000" stroke-opacity="0.54"/>
<path d="M323.5 190.5V172.232L349.5 179.78L349.488 190.5H323.5ZM349.49 174.011L323.5 163.447V156.826L349.49 170.414V174.011Z" stroke="#FE0000" stroke-opacity="0.54"/>
<path d="M295.512 151.5L295.5 140.78L321.5 133.232V151.5H295.512ZM295.51 135.011V131.414L321.5 117.826V124.447L295.51 135.011Z" stroke="white" stroke-opacity="0.3"/>
<path d="M323.5 151.5V133.232L349.5 140.78L349.488 151.5H323.5ZM349.49 135.011L323.5 124.447V117.826L349.49 131.414V135.011Z" stroke="white" stroke-opacity="0.3"/>
<path d="M236.512 268.5L236.5 257.78L262.5 250.232V268.5H236.512ZM236.51 252.011V248.414L262.5 234.826V241.447L236.51 252.011Z" stroke="white" stroke-opacity="0.3"/>
<path d="M264.5 268.5V250.232L290.5 257.78L290.488 268.5H264.5ZM290.49 252.011L264.5 241.447V234.826L290.49 248.414V252.011Z" stroke="white" stroke-opacity="0.3"/>
<path d="M236.512 229.5L236.5 218.78L262.5 211.232V229.5H236.512ZM236.51 213.011V209.414L262.5 195.826V202.447L236.51 213.011Z" stroke="white" stroke-opacity="0.3"/>
<path d="M264.5 229.5V211.232L290.5 218.78L290.488 229.5H264.5ZM290.49 213.011L264.5 202.447V195.826L290.49 209.414V213.011Z" stroke="white" stroke-opacity="0.3"/>
<path d="M177.512 268.5L177.5 257.78L203.5 250.232V268.5H177.512ZM177.51 252.011V248.414L203.5 234.826V241.447L177.51 252.011Z" stroke="white" stroke-opacity="0.3"/>
<path d="M205.5 268.5V250.232L231.5 257.78L231.488 268.5H205.5ZM231.49 252.011L205.5 241.447V234.826L231.49 248.414V252.011Z" stroke="white" stroke-opacity="0.3"/>
<path d="M177.512 229.5L177.5 218.78L203.5 211.232V229.5H177.512ZM177.51 213.011V209.414L203.5 195.826V202.447L177.51 213.011Z" stroke="#FE0000" stroke-opacity="0.54"/>
<path d="M205.5 229.5V211.232L231.5 218.78L231.488 229.5H205.5ZM231.49 213.011L205.5 202.447V195.826L231.49 209.414V213.011Z" stroke="#FE0000" stroke-opacity="0.54"/>
<path d="M236.512 190.5L236.5 179.78L262.5 172.232V190.5H236.512ZM236.51 174.011V170.414L262.5 156.826V163.447L236.51 174.011Z" stroke="white" stroke-opacity="0.3"/>
<path d="M264.5 190.5V172.232L290.5 179.78L290.488 190.5H264.5ZM290.49 174.011L264.5 163.447V156.826L290.49 170.414V174.011Z" stroke="white" stroke-opacity="0.3"/>
<path d="M236.512 151.5L236.5 140.78L262.5 133.232V151.5H236.512ZM236.51 135.011V131.414L262.5 117.826V124.447L236.51 135.011Z" stroke="white" stroke-opacity="0.3"/>
<path d="M264.5 151.5V133.232L290.5 140.78L290.488 151.5H264.5ZM290.49 135.011L264.5 124.447V117.826L290.49 131.414V135.011Z" stroke="white" stroke-opacity="0.3"/>
<path d="M354.512 112.5L354.5 101.78L380.5 94.2316V112.5H354.512ZM354.51 96.0115V92.4143L380.5 78.8256V85.4466L354.51 96.0115Z" stroke="white" stroke-opacity="0.3"/>
<path d="M382.5 112.5V94.2316L408.5 101.78L408.488 112.5H382.5ZM408.49 96.0115L382.5 85.4466V78.8256L408.49 92.4143V96.0115Z" stroke="white" stroke-opacity="0.3"/>
<path d="M295.512 112.5L295.5 101.78L321.5 94.2316V112.5H295.512ZM295.51 96.0115V92.4143L321.5 78.8256V85.4466L295.51 96.0115Z" stroke="white" stroke-opacity="0.3"/>
<path d="M323.5 112.5V94.2316L349.5 101.78L349.488 112.5H323.5ZM349.49 96.0115L323.5 85.4466V78.8256L349.49 92.4143V96.0115Z" stroke="white" stroke-opacity="0.3"/>
<path d="M354.512 73.5L354.5 62.7804L380.5 55.2316V73.5H354.512ZM354.51 57.0115V53.4143L380.5 39.8256V46.4466L354.51 57.0115Z" stroke="white" stroke-opacity="0.3"/>
<path d="M382.5 73.5V55.2316L408.5 62.7804L408.488 73.5H382.5ZM408.49 57.0115L382.5 46.4466V39.8256L408.49 53.4143V57.0115Z" stroke="white" stroke-opacity="0.3"/>
<path d="M354.512 34.5L354.5 23.7804L380.5 16.2316V34.5H354.512ZM354.51 18.0115V14.4143L380.5 0.825643V7.44656L354.51 18.0115Z" stroke="white" stroke-opacity="0.3"/>
<path d="M382.5 34.5V16.2316L408.5 23.7804L408.488 34.5H382.5ZM408.49 18.0115L382.5 7.44656V0.825643L408.49 14.4143V18.0115Z" stroke="white" stroke-opacity="0.3"/>
<path d="M295.512 73.5L295.5 62.7804L321.5 55.2316V73.5H295.512ZM295.51 57.0115V53.4143L321.5 39.8256V46.4466L295.51 57.0115Z" stroke="#FE0000" stroke-opacity="0.54"/>
<path d="M323.5 73.5V55.2316L349.5 62.7804L349.488 73.5H323.5ZM349.49 57.0115L323.5 46.4466V39.8256L349.49 53.4143V57.0115Z" stroke="#FE0000" stroke-opacity="0.54"/>
<path d="M236.512 112.5L236.5 101.78L262.5 94.2316V112.5H236.512ZM236.51 96.0115V92.4143L262.5 78.8256V85.4466L236.51 96.0115Z" stroke="white" stroke-opacity="0.3"/>
<path d="M264.5 112.5V94.2316L290.5 101.78L290.488 112.5H264.5ZM290.49 96.0115L264.5 85.4466V78.8256L290.49 92.4143V96.0115Z" stroke="white" stroke-opacity="0.3"/>
<path d="M177.512 190.5L177.5 179.78L203.5 172.232V190.5H177.512ZM177.51 174.011V170.414L203.5 156.826V163.447L177.51 174.011Z" stroke="white" stroke-opacity="0.3"/>
<path d="M205.5 190.5V172.232L231.5 179.78L231.488 190.5H205.5ZM231.49 174.011L205.5 163.447V156.826L231.49 170.414V174.011Z" stroke="white" stroke-opacity="0.3"/>
<path d="M118.512 268.5L118.5 257.78L144.5 250.232V268.5H118.512ZM118.51 252.011V248.414L144.5 234.826V241.447L118.51 252.011Z" stroke="white" stroke-opacity="0.3"/>
<path d="M146.5 268.5V250.232L172.5 257.78L172.488 268.5H146.5ZM172.49 252.011L146.5 241.447V234.826L172.49 248.414V252.011Z" stroke="white" stroke-opacity="0.3"/>
<path d="M118.512 229.5L118.5 218.78L144.5 211.232V229.5H118.512ZM118.51 213.011V209.414L144.5 195.826V202.447L118.51 213.011Z" stroke="white" stroke-opacity="0.3"/>
<path d="M146.5 229.5V211.232L172.5 218.78L172.488 229.5H146.5ZM172.49 213.011L146.5 202.447V195.826L172.49 209.414V213.011Z" stroke="white" stroke-opacity="0.3"/>
<path d="M59.5123 268.5L59.5004 257.78L85.5 250.232V268.5H59.5123ZM59.5104 252.011V248.414L85.5 234.826V241.447L59.5104 252.011Z" stroke="white" stroke-opacity="0.3"/>
<path d="M87.5 268.5V250.232L113.5 257.78L113.488 268.5H87.5ZM113.49 252.011L87.5 241.447V234.826L113.49 248.414V252.011Z" stroke="white" stroke-opacity="0.3"/>
<path d="M0.512307 268.5L0.500417 257.78L26.5 250.232V268.5H0.512307ZM0.510354 252.011V248.414L26.5 234.826V241.447L0.510354 252.011Z" stroke="white" stroke-opacity="0.3"/>
<path d="M28.5 268.5V250.232L54.4996 257.78L54.4877 268.5H28.5ZM54.4896 252.011L28.5 241.447V234.826L54.4896 248.414V252.011Z" stroke="white" stroke-opacity="0.3"/>
<path d="M59.5123 229.5L59.5004 218.78L85.5 211.232V229.5H59.5123ZM59.5104 213.011V209.414L85.5 195.826V202.447L59.5104 213.011Z" stroke="white" stroke-opacity="0.3"/>
<path d="M87.5 229.5V211.232L113.5 218.78L113.488 229.5H87.5ZM113.49 213.011L87.5 202.447V195.826L113.49 209.414V213.011Z" stroke="white" stroke-opacity="0.3"/>
<path d="M118.512 190.5L118.5 179.78L144.5 172.232V190.5H118.512ZM118.51 174.011V170.414L144.5 156.826V163.447L118.51 174.011Z" stroke="white" stroke-opacity="0.3"/>
<path d="M146.5 190.5V172.232L172.5 179.78L172.488 190.5H146.5ZM172.49 174.011L146.5 163.447V156.826L172.49 170.414V174.011Z" stroke="white" stroke-opacity="0.3"/>
<path d="M177.512 151.5L177.5 140.78L203.5 133.232V151.5H177.512ZM177.51 135.011V131.414L203.5 117.826V124.447L177.51 135.011Z" stroke="white" stroke-opacity="0.3"/>
<path d="M205.5 151.5V133.232L231.5 140.78L231.488 151.5H205.5ZM231.49 135.011L205.5 124.447V117.826L231.49 131.414V135.011Z" stroke="white" stroke-opacity="0.3"/>
</svg>
