<svg width="173" height="152" viewBox="0 0 173 152" fill="none" xmlns="http://www.w3.org/2000/svg">
<path d="M118.512 151.5L118.5 140.78L144.5 133.232V151.5H118.512ZM118.51 135.011V131.414L144.5 117.826V124.447L118.51 135.011Z" stroke="#FE0000" stroke-opacity="0.54"/>
<path d="M146.5 151.5V133.232L172.5 140.78L172.488 151.5H146.5ZM172.49 135.011L146.5 124.447V117.826L172.49 131.414V135.011Z" stroke="#FE0000" stroke-opacity="0.54"/>
<path d="M118.512 112.5L118.5 101.78L144.5 94.2316V112.5H118.512ZM118.51 96.0115V92.4143L144.5 78.8256V85.4466L118.51 96.0115Z" stroke="white" stroke-opacity="0.3"/>
<path d="M146.5 112.5V94.2316L172.5 101.78L172.488 112.5H146.5ZM172.49 96.0115L146.5 85.4466V78.8256L172.49 92.4143V96.0115Z" stroke="white" stroke-opacity="0.3"/>
<path d="M118.512 73.5L118.5 62.7804L144.5 55.2316V73.5H118.512ZM118.51 57.0115V53.4143L144.5 39.8256V46.4466L118.51 57.0115Z" stroke="white" stroke-opacity="0.3"/>
<path d="M146.5 73.5V55.2316L172.5 62.7804L172.488 73.5H146.5ZM172.49 57.0115L146.5 46.4466V39.8256L172.49 53.4143V57.0115Z" stroke="white" stroke-opacity="0.3"/>
<path d="M59.5123 151.5L59.5004 140.78L85.5 133.232V151.5H59.5123ZM59.5104 135.011V131.414L85.5 117.826V124.447L59.5104 135.011Z" stroke="white" stroke-opacity="0.3"/>
<path d="M87.5 151.5V133.232L113.5 140.78L113.488 151.5H87.5ZM113.49 135.011L87.5 124.447V117.826L113.49 131.414V135.011Z" stroke="white" stroke-opacity="0.3"/>
<path d="M0.512307 151.5L0.500417 140.78L26.5 133.232V151.5H0.512307ZM0.510354 135.011V131.414L26.5 117.826V124.447L0.510354 135.011Z" stroke="#FE0000" stroke-opacity="0.54"/>
<path d="M28.5 151.5V133.232L54.4996 140.78L54.4877 151.5H28.5ZM54.4896 135.011L28.5 124.447V117.826L54.4896 131.414V135.011Z" stroke="#FE0000" stroke-opacity="0.54"/>
<path d="M59.5123 112.5L59.5004 101.78L85.5 94.2316V112.5H59.5123ZM59.5104 96.0115V92.4143L85.5 78.8256V85.4466L59.5104 96.0115Z" stroke="white" stroke-opacity="0.3"/>
<path d="M87.5 112.5V94.2316L113.5 101.78L113.488 112.5H87.5ZM113.49 96.0115L87.5 85.4466V78.8256L113.49 92.4143V96.0115Z" stroke="white" stroke-opacity="0.3"/>
<path d="M59.5123 73.5L59.5004 62.7804L85.5 55.2316V73.5H59.5123ZM59.5104 57.0115V53.4143L85.5 39.8256V46.4466L59.5104 57.0115Z" stroke="white" stroke-opacity="0.3"/>
<path d="M87.5 73.5V55.2316L113.5 62.7804L113.488 73.5H87.5ZM113.49 57.0115L87.5 46.4466V39.8256L113.49 53.4143V57.0115Z" stroke="white" stroke-opacity="0.3"/>
<path d="M118.512 34.5L118.5 23.7804L144.5 16.2316V34.5H118.512ZM118.51 18.0115V14.4143L144.5 0.825643V7.44656L118.51 18.0115Z" stroke="#FE0000" stroke-opacity="0.54"/>
<path d="M146.5 34.5V16.2316L172.5 23.7804L172.488 34.5H146.5ZM172.49 18.0115L146.5 7.44656V0.825643L172.49 14.4143V18.0115Z" stroke="#FE0000" stroke-opacity="0.54"/>
</svg>
