<svg width="58" height="65" viewBox="0 0 58 65" xmlns="http://www.w3.org/2000/svg">
<path d="M22.5078 4.9375C27.7187 7.0989 31.3781 12.2242 31.3781 18.2055"/>
<path d="M2.64844 18.2055C2.64844 12.2135 6.30784 7.0882 11.5187 4.9375"/>
<path d="M22.5065 1.8988V18.2056H11.5176V1.8988C13.2403 1.3103 15.0914 1 17.0067 1C18.9327 1 20.7731 1.3103 22.5065 1.8988Z"/>
<path d="M33.0261 18.207V21.0532H29.784V23.3965H24.2414V27.195H1.01172V18.207H33.0261Z"/>
<path d="M4.83008 27.1953V46.7335L13.4115 53.6029H17.0174"/>
<path d="M24.2401 50.7031L20.6128 53.6028H17.0176"/>
<path d="M4.8306 30.96H1V36.9627L4.7985 40.7612"/>
<path d="M47.5452 21.0518H29.7832V25.7384H47.5452V21.0518Z"/>
<path d="M53.0981 23.395V60.8664H24.2402V23.395H29.7828V25.7383H47.5555V23.395H53.0981Z"/>
<path d="M53.0989 26.8086H56.5122V64.28H27.6543V60.8667"/>
<path d="M38.6757 34.2109L30.4688 39.914"/>
<path d="M38.6758 34.2109L46.872 39.914V50.0576"/>
<path d="M36.4394 36.0513L41.9927 39.914V50.0576H30.4688V44.8253"/>
</svg>
