<svg width="58" height="60" viewBox="0 0 58 60" xmlns="http://www.w3.org/2000/svg">
<path d="M16.8906 1L32.1706 14.32L49.5706 29.49L56.7106 35.71V1.01H16.8906V1ZM51.4606 24.16L49.5706 22.51L40.1706 14.32L30.9106 6.25H51.4606V24.16Z"/>
<path d="M51.4602 6.25V24.16L49.5702 22.51L40.1702 14.32L30.9102 6.25H51.4602Z"/>
<path d="M51.4602 6.25V24.16L49.5702 22.51L40.1702 14.32L30.9102 6.25H51.4602Z"/>
<path d="M23.4199 1V2.79"/>
<path d="M30.0801 1V2.79"/>
<path d="M36.7402 1V2.79"/>
<path d="M43.4004 1V2.79"/>
<path d="M50.0605 1V2.79"/>
<path d="M9.88 5.70996V39.27H5.99C3.23 39.27 1 41.5 1 44.25V10.69C1 7.93996 3.23 5.70996 5.99 5.70996H9.88Z"/>
<path d="M49.5699 19.3001V22.5101L40.1699 14.3201H44.5899C47.3499 14.3201 49.5699 16.5501 49.5699 19.3001Z"/>
<path d="M32.17 14.3201L49.57 29.4901V54.2001C49.57 51.4501 47.34 49.2201 44.59 49.2201H5.99C3.23 49.2201 1 46.9901 1 44.2401C1 41.5701 3.1 39.3901 5.75 39.2701C5.83 39.2601 5.91 39.2601 5.99 39.2601H9.88V14.3201H32.17Z"/>
<path d="M49.5692 54.1988C49.5692 56.9488 47.3392 59.1787 44.5892 59.1787H40.6992V49.2188H44.5892C47.3492 49.2188 49.5692 51.4488 49.5692 54.1988Z"/>
<path d="M9.88086 22.8601H38.2009V44.8001H28.9409"/>
<path d="M28.9404 44.8017C28.9404 41.1917 26.0204 38.2617 22.4004 38.2617"/>
<path d="M22.4098 44.8017H5.75977V39.2617"/>
<path d="M22.4102 44.8019V43.1719"/>
<path d="M16.4199 44.7999V28.9299"/>
<path d="M38.1999 33.3711H16.4199"/>
<path d="M28.9395 22.8601V33.3701"/>
</svg>
