<svg width="74" height="50" viewBox="0 0 74 50" xmlns="http://www.w3.org/2000/svg">
<path d="M12.2608 8.57056V33.9138H5.90072L1 28.9785V13.5059L5.90072 8.57056H12.2608Z"/>
<path d="M9.30224 11.5469V30.93H7.12305"/>
<path d="M65.3504 1V41.4776H9.30273V33.9154H12.2609V8.57214H9.30273V1H65.3504Z"/>
<path d="M69.077 4.76953V45.2273H13.0293V41.476H65.3497V4.76953H69.077Z"/>
<path d="M72.8056 8.53198V48.9996H16.748V45.2285H69.0783V8.53198H72.8056Z"/>
<path d="M57.6393 17.6484H17.0234V21.4096H57.6393V17.6484Z"/>
<path d="M17.0234 28.394H24.4879V32.1652H17.0234"/>
<path d="M35.4624 28.394H28.2148V32.1552H35.4624V28.394Z"/>
<path d="M46.437 28.394H39.1895V32.1552H46.437V28.394Z"/>
<path d="M57.6285 32.1652H50.1641V28.394H57.6285"/>
<path d="M35.4629 36.3341V21.4187H39.1902V36.3341"/>
<path d="M24.4883 36.3341V21.4187H28.2156V36.3341"/>
<path d="M46.4375 36.3341V21.4187H50.1648V36.3341"/>
<path d="M17.0234 21.4089V6.14526"/>
<path d="M57.6289 21.4082V6.14453"/>
<path d="M21.0868 9.91406L17.1426 13.8942"/>
<path d="M27.318 9.91406L19.6465 17.6454"/>
<path d="M33.5406 9.91406L25.8789 17.6454"/>
<path d="M39.7712 9.91406L32.0996 17.6454"/>
<path d="M45.9938 9.91406L38.3223 17.6454"/>
<path d="M52.2261 9.91406L44.7715 17.4265"/>
<path d="M57.6305 10.7305L50.7773 17.6459"/>
</svg>
